<svg width="47" height="22" viewBox="0 0 47 22" fill="none" xmlns="http://www.w3.org/2000/svg">
<path d="M3.21094 21.3008C1.73438 21.3008 0.53125 20.125 0.558594 18.6484C0.53125 17.1992 1.73438 16.0234 3.21094 16.0234C4.60547 16.0234 5.86328 17.1992 5.86328 18.6484C5.86328 20.125 4.60547 21.3008 3.21094 21.3008ZM20.9406 7.71094C20.5852 6.28906 19.4094 5.46875 17.6594 5.46875C14.8977 5.46875 13.2844 7.54688 13.2844 11.0742C13.2844 14.6289 14.7883 16.7344 17.632 16.7344C20.1066 16.7344 21.3645 15.5723 21.4055 13.7266H17.7414V10.0078H26.4367V12.7148C26.4367 18.1016 22.7453 21.2734 17.5773 21.2734C11.8352 21.2734 7.925 17.3906 7.925 11.1289C7.925 4.62109 12.218 0.929688 17.55 0.929688C22.1984 0.929688 25.7805 3.74609 26.218 7.71094H20.9406ZM41.2133 7.71094C40.8578 6.28906 39.682 5.46875 37.932 5.46875C35.1703 5.46875 33.557 7.54688 33.557 11.0742C33.557 14.6289 35.0609 16.7344 37.9047 16.7344C40.3793 16.7344 41.6371 15.5723 41.6781 13.7266H38.0141V10.0078H46.7094V12.7148C46.7094 18.1016 43.018 21.2734 37.85 21.2734C32.1078 21.2734 28.1977 17.3906 28.1977 11.1289C28.1977 4.62109 32.4906 0.929688 37.8227 0.929688C42.4711 0.929688 46.0531 3.74609 46.4906 7.71094H41.2133Z" fill="#5383E8"/>
</svg>
