<svg width="24" height="24" viewBox="0 0 24 24" fill="none" xmlns="http://www.w3.org/2000/svg">
<g id="01-icon-01-lol-icon-position-jng 1">
<g id="Group">
<g id="Group_2">
<g id="Group_3">
<g id="Group_4">
<g id="Group_5">
<path id="Vector" d="M5.14 2C6.72 3.21 10.72 7.023 12.116 11.953C13.512 16.883 12.116 22 12.116 22C9.367 18.836 6.223 16.8 5.936 16.618L5.916 16.605C5.45 13.814 3 8.79 3 8.79C6.536 9.657 7.93 13.069 7.93 13.069C7.558 8.698 5.14 2 5.14 2ZM20.116 7.907C20.116 7.907 18.873 10.378 18.302 12.511C18.067 13.389 18.017 14.711 18.012 15.569V15.851C18.015 16.198 18.022 16.419 18.022 16.419C18.022 16.419 16.284 18.816 14.642 20.097C14.73 18.496 14.704 16.662 14.434 14.763C15.362 12.74 17.28 9.309 20.116 7.907ZM17.992 2.576C17.992 2.576 15.667 5.628 15.156 8.605C15.046 9.241 14.955 9.799 14.872 10.3C14.493 10.884 14.142 11.466 13.822 12.033C13.789 11.908 13.762 11.783 13.727 11.658C13.425 10.588 13.023 9.563 12.567 8.578C12.62 8.432 12.67 8.288 12.737 8.14C12.737 8.14 14.551 4.36 17.992 2.576Z" fill="#5383E8"/>
</g>
</g>
</g>
</g>
</g>
</g>
</svg>
