<svg width="92" height="19" viewBox="0 0 92 19" fill="none" xmlns="http://www.w3.org/2000/svg">
<path d="M0.398438 1.03125H5.39062L8.76562 7.96875H8.90625L12.3047 1.03125H17.2969L11.0625 12.5625V18H6.63281V12.5625L0.398438 1.03125ZM33.3844 9.51562C33.3844 15.1641 29.775 18.2344 25.1812 18.2344C20.5406 18.2344 16.9547 15.1406 16.9547 9.51562C16.9547 3.86719 20.5406 0.796875 25.1812 0.796875C29.775 0.796875 33.3844 3.86719 33.3844 9.51562ZM28.7906 9.51562C28.7906 6.39844 27.5016 4.6875 25.1812 4.6875C22.8375 4.6875 21.5484 6.39844 21.5484 9.51562C21.5484 12.6328 22.8375 14.3438 25.1812 14.3438C27.5016 14.3438 28.7906 12.6328 28.7906 9.51562ZM51.2766 9.51562C51.2766 15.1641 47.6672 18.2344 43.0734 18.2344C38.4328 18.2344 34.8469 15.1406 34.8469 9.51562C34.8469 3.86719 38.4328 0.796875 43.0734 0.796875C47.6672 0.796875 51.2766 3.86719 51.2766 9.51562ZM46.6828 9.51562C46.6828 6.39844 45.3937 4.6875 43.0734 4.6875C40.7297 4.6875 39.4406 6.39844 39.4406 9.51562C39.4406 12.6328 40.7297 14.3438 43.0734 14.3438C45.3937 14.3438 46.6828 12.6328 46.6828 9.51562ZM54.2391 18.2578C52.9734 18.2578 51.9422 17.25 51.9656 15.9844C51.9422 14.7422 52.9734 13.7344 54.2391 13.7344C55.4344 13.7344 56.5125 14.7422 56.5125 15.9844C56.5125 17.25 55.4344 18.2578 54.2391 18.2578ZM69.4359 6.60938C69.1312 5.39062 68.1234 4.6875 66.6234 4.6875C64.2562 4.6875 62.8734 6.46875 62.8734 9.49219C62.8734 12.5391 64.1625 14.3438 66.6 14.3438C68.7211 14.3438 69.7992 13.3477 69.8344 11.7656H66.6937V8.57812H74.1469V10.8984C74.1469 15.5156 70.9828 18.2344 66.5531 18.2344C61.6312 18.2344 58.2797 14.9062 58.2797 9.53906C58.2797 3.96094 61.9594 0.796875 66.5297 0.796875C70.5141 0.796875 73.5844 3.21094 73.9594 6.60938H69.4359ZM86.8125 6.60938C86.5078 5.39062 85.5 4.6875 84 4.6875C81.6328 4.6875 80.25 6.46875 80.25 9.49219C80.25 12.5391 81.5391 14.3438 83.9766 14.3438C86.0977 14.3438 87.1758 13.3477 87.2109 11.7656H84.0703V8.57812H91.5234V10.8984C91.5234 15.5156 88.3594 18.2344 83.9297 18.2344C79.0078 18.2344 75.6562 14.9062 75.6562 9.53906C75.6562 3.96094 79.3359 0.796875 83.9062 0.796875C87.8906 0.796875 90.9609 3.21094 91.3359 6.60938H86.8125Z" fill="white"/>
</svg>
